#define menu_width 107
#define menu_height 124
static char menu_bits[] = {
 0xff,0xff,0xff,0xff,0xff,0xff,0xff,0xff,0xff,0xff,0xff,0xff,0xff,0x05,0x01,
 0x00,0x00,0x00,0x00,0x00,0x00,0x00,0x00,0x00,0x00,0x00,0x00,0x03,0x01,0x00,
 0x00,0x00,0x00,0x00,0x00,0x00,0x00,0x00,0x00,0x00,0x00,0x05,0x01,0x00,0x00,
 0x00,0x00,0x00,0x00,0x00,0x00,0x00,0x00,0x00,0x00,0x07,0x01,0x00,0x00,0x00,
 0x00,0x00,0x00,0x00,0x00,0x00,0x00,0x00,0x00,0x07,0x01,0x00,0x00,0x00,0x00,
 0x00,0x00,0x00,0x00,0x00,0x00,0x00,0x00,0x07,0x01,0x1e,0x00,0x60,0x00,0x00,
 0x00,0x00,0x00,0x00,0x00,0x00,0x00,0x07,0x81,0x7f,0x00,0x60,0x06,0x00,0x00,
 0x00,0x00,0x00,0x00,0x00,0x00,0x07,0xc1,0xe1,0x00,0x00,0x06,0x00,0x00,0x00,
 0x00,0x00,0x00,0x00,0x00,0x07,0xc1,0xc0,0x18,0x66,0x0f,0x00,0x00,0x00,0x00,
 0x00,0x00,0x00,0x00,0x07,0x61,0x80,0x19,0x66,0x0f,0x00,0x00,0x00,0x00,0x00,
 0x00,0x00,0x00,0x07,0x61,0x80,0x19,0x66,0x06,0x00,0x00,0x00,0x00,0x00,0x00,
 0x00,0x00,0x07,0x61,0x80,0x19,0x66,0x06,0x00,0x00,0x00,0x00,0x00,0x00,0x00,
 0x00,0x07,0x61,0x80,0x19,0x66,0x06,0x00,0x00,0x00,0x00,0x00,0x00,0x00,0x00,
 0x07,0x61,0xb0,0x19,0x66,0x06,0x00,0x00,0x00,0x00,0x00,0x00,0x00,0x00,0x07,
 0xc1,0xf0,0x18,0x66,0x06,0x00,0x00,0x00,0x00,0x00,0x00,0x00,0x00,0x07,0xc1,
 0xe1,0x38,0x67,0x06,0x00,0x00,0x00,0x00,0x00,0x00,0x00,0x00,0x07,0x81,0xff,
 0xf1,0x67,0x0e,0x00,0x00,0x00,0x00,0x00,0x00,0x00,0x00,0x07,0x01,0x9e,0xe1,
 0x66,0x0c,0x00,0x00,0x00,0x00,0x00,0x00,0x00,0x00,0x07,0x01,0x00,0x00,0x00,
 0x00,0x00,0x00,0x00,0x00,0x00,0x00,0x00,0x00,0x07,0x01,0x00,0x00,0x00,0x00,
 0x00,0x00,0x00,0x00,0x00,0x00,0x00,0x00,0x07,0x01,0x00,0x00,0x00,0x00,0x00,
 0x00,0x00,0x00,0x00,0x00,0x00,0x00,0x07,0x01,0x00,0x00,0x00,0x00,0x00,0x00,
 0x00,0x00,0x00,0x00,0x00,0x00,0x07,0x01,0x00,0x00,0x00,0x00,0x00,0x00,0x00,
 0x00,0x00,0x00,0x00,0x00,0x07,0x01,0x00,0x00,0x00,0x00,0x00,0x00,0x00,0x00,
 0x00,0x00,0x00,0x00,0x07,0x01,0x00,0x00,0x00,0x00,0x00,0x00,0x00,0x00,0x00,
 0x00,0x00,0x00,0x07,0x01,0x00,0x00,0x00,0x00,0x00,0x00,0x00,0x00,0x00,0x00,
 0x00,0x00,0x07,0x01,0x00,0x00,0x00,0x00,0x00,0x00,0x00,0x00,0x00,0x00,0x00,
 0x00,0x07,0x01,0x00,0x00,0x00,0x00,0x00,0x00,0x00,0x00,0x00,0x00,0x00,0x00,
 0x07,0x01,0x00,0x00,0x00,0x00,0x00,0x00,0x00,0x00,0x00,0x00,0x00,0x00,0x07,
 0x01,0x1e,0x00,0x00,0x00,0x00,0x00,0x00,0x00,0x00,0x00,0x00,0x00,0x07,0x81,
 0x7f,0x00,0x00,0x00,0x00,0x00,0x00,0x00,0x00,0x00,0x00,0x00,0x07,0xc1,0xe1,
 0x00,0x00,0x00,0x00,0x00,0x00,0x00,0x00,0x00,0x00,0x00,0x07,0xc1,0xc0,0xec,
 0x80,0x83,0x1d,0x00,0x00,0x00,0x00,0x00,0x00,0x00,0x07,0x61,0x80,0xfd,0xe3,
 0x8f,0x3f,0x00,0x00,0x00,0x00,0x00,0x00,0x00,0x07,0x61,0x80,0x1d,0x63,0x8c,
 0x73,0x00,0x00,0x00,0x00,0x00,0x00,0x00,0x07,0x61,0x80,0x0d,0x36,0x98,0x61,
 0x00,0x00,0x00,0x00,0x00,0x00,0x00,0x07,0x61,0x80,0x0d,0xf6,0x9f,0x61,0x00,
 0x00,0x00,0x00,0x00,0x00,0x00,0x07,0x61,0x80,0x0d,0xf6,0x9f,0x61,0x00,0x00,
 0x00,0x00,0x00,0x00,0x00,0x07,0xc1,0xc0,0x0c,0x36,0x80,0x61,0x00,0x00,0x00,
 0x00,0x00,0x00,0x00,0x07,0xc1,0xe1,0x1c,0x63,0x8c,0x61,0x00,0x00,0x00,0x00,
 0x00,0x00,0x00,0x07,0x81,0x7f,0xfc,0xe3,0x8f,0x61,0x0c,0xc3,0x00,0x00,0x00,
 0x00,0x00,0x07,0x01,0x1e,0xec,0x80,0x83,0x61,0x0c,0xc3,0x00,0x00,0x00,0x00,
 0x00,0x07,0x01,0x00,0x0c,0x00,0x00,0x00,0x00,0x00,0x00,0x00,0x00,0x00,0x00,
 0x07,0x01,0x00,0x0c,0x00,0x00,0x00,0x00,0x00,0x00,0x00,0x00,0x00,0x00,0x07,
 0x01,0x00,0x0c,0x00,0x00,0x00,0x00,0x00,0x00,0x00,0x00,0x00,0x00,0x07,0x01,
 0x00,0x00,0x00,0x00,0x00,0x00,0x00,0x00,0x00,0x00,0x00,0x00,0x07,0x01,0x00,
 0x00,0x00,0x00,0x00,0x00,0x00,0x00,0x00,0x00,0x00,0x00,0x07,0x01,0x00,0x00,
 0x00,0x00,0x00,0x00,0x00,0x00,0x00,0x00,0x00,0x00,0x07,0x01,0x00,0x00,0x00,
 0x00,0x00,0x00,0x00,0x00,0x00,0x00,0x00,0x00,0x07,0x01,0x00,0x00,0x00,0x00,
 0x00,0x00,0x00,0x00,0x00,0x00,0x00,0x00,0x07,0x01,0x00,0x00,0x00,0x00,0x00,
 0x00,0x00,0x00,0x00,0x00,0x00,0x00,0x07,0x01,0x00,0x00,0x00,0x00,0x00,0x00,
 0x00,0x00,0x00,0x00,0x00,0x00,0x07,0x01,0x00,0x00,0x00,0x00,0x00,0x00,0x00,
 0x00,0x00,0x00,0x00,0x00,0x07,0x81,0x0f,0x00,0x00,0x00,0x00,0x00,0x00,0x00,
 0x00,0x00,0x00,0x00,0x07,0xc1,0x1f,0x00,0x00,0x00,0x00,0x00,0x00,0x00,0x00,
 0x00,0x00,0x00,0x07,0xe1,0x38,0x00,0x00,0x00,0x00,0x00,0x00,0x00,0x00,0x00,
 0x00,0x00,0x07,0x61,0x30,0x3c,0x18,0xc3,0x01,0x00,0x00,0x00,0x00,0x00,0x00,
 0x00,0x07,0xe1,0x00,0x7f,0x18,0xf3,0x07,0x00,0x00,0x00,0x00,0x00,0x00,0x00,
 0x07,0xc1,0x07,0xc3,0x18,0x33,0x06,0x00,0x00,0x00,0x00,0x00,0x00,0x00,0x07,
 0x01,0x1f,0xf0,0xb0,0x19,0x0c,0x00,0x00,0x00,0x00,0x00,0x00,0x00,0x07,0x01,
 0x38,0xfc,0xb0,0xf9,0x0f,0x00,0x00,0x00,0x00,0x00,0x00,0x00,0x07,0x61,0x30,
 0xce,0xb0,0xf9,0x0f,0x00,0x00,0x00,0x00,0x00,0x00,0x00,0x07,0x61,0x30,0xc3,
 0xe0,0x18,0x00,0x00,0x00,0x00,0x00,0x00,0x00,0x00,0x07,0xe1,0x38,0xe3,0xe0,
 0x30,0x06,0x00,0x00,0x00,0x00,0x00,0x00,0x00,0x07,0xc1,0x1f,0xff,0x41,0xf0,
 0x87,0x61,0x18,0x00,0x00,0x00,0x00,0x00,0x07,0x81,0x0f,0x9e,0x41,0xc0,0x81,
 0x61,0x18,0x00,0x00,0x00,0x00,0x00,0x07,0x01,0x00,0x00,0x00,0x00,0x00,0x00,
 0x00,0x00,0x00,0x00,0x00,0x00,0x07,0x01,0x00,0x00,0x00,0x00,0x00,0x00,0x00,
 0x00,0x00,0x00,0x00,0x00,0x07,0x01,0x00,0x00,0x00,0x00,0x00,0x00,0x00,0x00,
 0x00,0x00,0x00,0x00,0x07,0x01,0x00,0x00,0x00,0x00,0x00,0x00,0x00,0x00,0x00,
 0x00,0x00,0x00,0x07,0x01,0x00,0x00,0x00,0x00,0x00,0x00,0x00,0x00,0x00,0x00,
 0x00,0x00,0x07,0x01,0x00,0x00,0x00,0x00,0x00,0x00,0x00,0x00,0x00,0x00,0x00,
 0x00,0x07,0x01,0x00,0x00,0x00,0x00,0x00,0x00,0x00,0x00,0x00,0x00,0x00,0x00,
 0x07,0x01,0x00,0x00,0x00,0x00,0x00,0x00,0x00,0x00,0x00,0x00,0x00,0x00,0x07,
 0x01,0x00,0x00,0x00,0x00,0x00,0x00,0x00,0x00,0x00,0x00,0x00,0x00,0x07,0x01,
 0x00,0x00,0x00,0x00,0x00,0x00,0x00,0x00,0x00,0x00,0x00,0x00,0x07,0x01,0x00,
 0x00,0x00,0x00,0x00,0x00,0x00,0x00,0x00,0x00,0x00,0x00,0x07,0x81,0x0f,0x00,
 0x00,0x00,0x00,0x40,0x00,0x00,0x00,0x00,0x00,0x00,0x07,0xc1,0x1f,0x00,0x00,
 0x00,0x00,0x40,0x00,0x00,0x00,0x00,0x00,0x00,0x07,0xe1,0x38,0x00,0x00,0x00,
 0x00,0xe0,0x00,0x00,0x00,0x00,0x00,0x00,0x07,0x61,0x30,0x3c,0x18,0xc3,0x01,
 0xe0,0x80,0x07,0x00,0x00,0x00,0x00,0x07,0xe1,0x00,0x7f,0x18,0xf3,0x07,0xb0,
 0xc1,0x1f,0x00,0x00,0x00,0x00,0x07,0xc1,0x07,0xc3,0x18,0x33,0x06,0xb0,0xc1,
 0x18,0x00,0x00,0x00,0x00,0x07,0x01,0x1f,0xf0,0xb0,0x19,0x0c,0x18,0xc3,0x03,
 0x00,0x00,0x00,0x00,0x07,0x01,0x38,0xfc,0xb0,0xf9,0x0f,0xf8,0x83,0x0f,0x00,
 0x00,0x00,0x00,0x07,0x61,0x30,0xce,0xb0,0xf9,0x0f,0xf8,0x03,0x1e,0x00,0x00,
 0x00,0x00,0x07,0x61,0x30,0xc3,0xe0,0x18,0x00,0x0c,0x06,0x18,0x00,0x00,0x00,
 0x00,0x07,0xe1,0x38,0xe3,0xe0,0x30,0x06,0x0c,0xc6,0x18,0x00,0x00,0x00,0x00,
 0x07,0xc1,0x1f,0xff,0x41,0xf0,0x07,0x06,0xcc,0x0f,0xc3,0x30,0x00,0x00,0x07,
 0x81,0x0f,0x9e,0x41,0xc0,0x01,0x06,0x0c,0x07,0xc3,0x30,0x00,0x00,0x07,0x01,
 0x00,0x00,0x00,0x00,0x00,0x00,0x00,0x00,0x00,0x00,0x00,0x00,0x07,0x01,0x00,
 0x00,0x00,0x00,0x00,0x00,0x00,0x00,0x00,0x00,0x00,0x00,0x07,0x01,0x00,0x00,
 0x00,0x00,0x00,0x00,0x00,0x00,0x00,0x00,0x00,0x00,0x07,0x01,0x00,0x00,0x00,
 0x00,0x00,0x00,0x00,0x00,0x00,0x00,0x00,0x00,0x07,0x01,0x00,0x00,0x00,0x00,
 0x00,0x00,0x00,0x00,0x00,0x00,0x00,0x00,0x07,0x01,0x00,0x00,0x00,0x00,0x00,
 0x00,0x00,0x00,0x00,0x00,0x00,0x00,0x07,0x01,0x00,0x00,0x00,0x00,0x00,0x00,
 0x00,0x00,0x00,0x00,0x00,0x00,0x07,0x01,0x00,0x00,0x00,0x00,0x00,0x00,0x00,
 0x00,0x00,0x00,0x00,0x00,0x07,0x01,0x00,0x00,0x00,0x00,0x00,0x00,0x00,0x00,
 0x00,0x00,0x00,0x00,0x07,0x01,0x00,0x00,0x00,0x00,0x00,0x00,0x00,0x00,0x00,
 0x00,0x00,0x00,0x07,0x01,0x00,0x00,0x00,0x00,0x00,0x00,0x00,0x00,0x00,0x00,
 0x00,0x00,0x07,0x01,0x1e,0x00,0x00,0x00,0x00,0x00,0x00,0x00,0x00,0x00,0x00,
 0x00,0x07,0x81,0x7f,0x00,0x00,0x60,0x00,0x00,0x00,0x00,0x00,0x00,0x00,0x00,
 0x07,0xc1,0xe1,0x00,0x00,0x60,0x00,0x00,0x00,0x00,0x00,0x00,0x00,0x00,0x07,
 0xc1,0xc0,0x0c,0xe3,0xf1,0x70,0xb0,0x39,0x00,0x00,0x00,0x00,0x00,0x07,0x61,
 0x00,0x0c,0xf3,0xf7,0xfc,0xf1,0x7f,0x00,0x00,0x00,0x00,0x00,0x07,0x61,0x00,
 0x0c,0x33,0x66,0x8c,0x71,0xef,0x00,0x00,0x00,0x00,0x00,0x07,0x61,0x00,0x0c,
 0xf3,0x60,0x06,0x33,0xc6,0x00,0x00,0x00,0x00,0x00,0x07,0x61,0x00,0x0c,0xe3,
 0x63,0x06,0x33,0xc6,0x00,0x00,0x00,0x00,0x00,0x07,0x61,0x00,0x0c,0x83,0x67,
 0x06,0x33,0xc6,0x00,0x00,0x00,0x00,0x00,0x07,0xc1,0xc0,0x0c,0x03,0x66,0x06,
 0x33,0xc6,0x00,0x00,0x00,0x00,0x00,0x07,0xc1,0xe1,0x9c,0x33,0x66,0x8c,0x31,
 0xc6,0x00,0x00,0x00,0x00,0x00,0x07,0x81,0x7f,0xf8,0xf3,0xe3,0xfc,0x31,0xc6,
 0x30,0x0c,0x03,0x00,0x00,0x07,0x01,0x1e,0x70,0xc3,0xc1,0x70,0x30,0xc6,0x30,
 0x0c,0x03,0x00,0x00,0x07,0x01,0x00,0x00,0x00,0x00,0x00,0x00,0x00,0x00,0x00,
 0x00,0x00,0x00,0x07,0x01,0x00,0x00,0x00,0x00,0x00,0x00,0x00,0x00,0x00,0x00,
 0x00,0x00,0x07,0x01,0x00,0x00,0x00,0x00,0x00,0x00,0x00,0x00,0x00,0x00,0x00,
 0x00,0x07,0x01,0x00,0x00,0x00,0x00,0x00,0x00,0x00,0x00,0x00,0x00,0x00,0x00,
 0x07,0x01,0x00,0x00,0x00,0x00,0x00,0x00,0x00,0x00,0x00,0x00,0x00,0x00,0x07,
 0x01,0x00,0x00,0x00,0x00,0x00,0x00,0x00,0x00,0x00,0x00,0x00,0x00,0x07,0xff,
 0xff,0xff,0xff,0xff,0xff,0xff,0xff,0xff,0xff,0xff,0xff,0xff,0x07,0xfd,0xff,
 0xff,0xff,0xff,0xff,0xff,0xff,0xff,0xff,0xff,0xff,0xff,0x07,0xfa,0xff,0xff,
 0xff,0xff,0xff,0xff,0xff,0xff,0xff,0xff,0xff,0xff,0x07};
