#define misc_width 27#define misc_height 156static char misc_bits[] = { 0xbf,0xbf,0x9f,0x03,0xa1,0xa0,0x50,0x04,0x1d,0x1f,0x57,0x04,0x05,0x00,0x54, 0x04,0x05,0x00,0x94,0x03,0x03,0x00,0x18,0x00,0x00,0x00,0x00,0x00,0x00,0x00, 0x00,0x00,0x00,0x78,0x00,0x00,0x00,0xfc,0x00,0x00,0x00,0xcc,0x00,0x00,0x00, 0xcc,0x00,0x00,0x00,0x78,0x00,0x00,0x00,0x30,0x0c,0x00,0x00,0x7c,0x0c,0x00, 0x00,0xcc,0x06,0x00,0x00,0x86,0x07,0x00,0x00,0x06,0x03,0x00,0x00,0x8c,0x07, 0x00,0x00,0xfc,0x0c,0x00,0x00,0x70,0x18,0x00,0x00,0x00,0x00,0x00,0x00,0x00, 0x00,0x00,0x00,0x00,0x00,0x00,0x00,0x00,0x00,0x00,0x80,0x01,0xc0,0x00,0x80, 0x07,0xe0,0x00,0x00,0x1e,0xf0,0x00,0x00,0x78,0xd8,0x00,0x00,0xe0,0xc1,0x00, 0x00,0x78,0xc0,0x00,0x00,0x1e,0xc0,0x00,0x80,0x07,0xc0,0x00,0x80,0x01,0xc0, 0x00,0x00,0x00,0xc0,0x00,0x80,0xff,0xc1,0x00,0x80,0xff,0xc1,0x00,0x00,0x00, 0xc0,0x00,0x00,0x00,0x00,0x00,0x00,0x00,0x00,0x00,0x00,0x00,0x00,0x00,0x00, 0x00,0xc0,0x00,0x00,0x00,0xe0,0x00,0x00,0x00,0xf0,0x00,0x00,0x00,0xd8,0x00, 0x00,0x00,0xc0,0x00,0x00,0xff,0xc1,0x00,0x00,0xff,0xc1,0x00,0x00,0x00,0xc0, 0x00,0x00,0x00,0xc0,0x00,0x00,0xff,0xc1,0x00,0x00,0xff,0xc1,0x00,0x00,0x00, 0xc0,0x00,0x00,0x00,0xc0,0x00,0x00,0x00,0x00,0x00,0x00,0x00,0x00,0x00,0x00, 0x00,0x00,0x00,0x00,0x00,0x00,0x00,0x00,0x00,0x00,0x00,0x38,0x00,0x80,0x03, 0x48,0x00,0x40,0x04,0x88,0x00,0x40,0x04,0x88,0x00,0x40,0x04,0x88,0x00,0x40, 0x04,0x48,0x00,0x40,0x05,0x38,0x00,0x80,0x03,0x00,0x00,0x00,0x02,0x00,0x00, 0x00,0x00,0x00,0x00,0x00,0x00,0x00,0x00,0x00,0x00,0x00,0x00,0x00,0x00,0x00, 0x00,0x00,0x00,0x00,0x00,0x00,0x00,0x00,0x00,0xc0,0x07,0x00,0x00,0x00,0x00, 0xc1,0x01,0x80,0x03,0x22,0x02,0x40,0x04,0x24,0x00,0x40,0x04,0x28,0x00,0x40, 0x04,0x24,0x00,0x40,0x04,0x22,0x02,0x40,0x05,0xc1,0x01,0x80,0x03,0x00,0x00, 0x00,0x02,0x00,0x00,0x00,0x00,0x00,0x00,0x00,0x00,0x00,0x00,0x00,0x00,0x00, 0x00,0x00,0x00,0x00,0x00,0x00,0x00,0x00,0x00,0x00,0x00,0x00,0x00,0x00,0x00, 0x00,0x00,0x00,0x00,0x78,0x00,0x80,0x03,0x88,0x00,0x40,0x04,0x88,0x00,0x40, 0x04,0x78,0x00,0x40,0x04,0x28,0x00,0x40,0x04,0x48,0x00,0x40,0x05,0x88,0x00, 0x80,0x03,0x00,0x00,0x00,0x02,0x00,0x00,0x00,0x00,0x00,0x00,0x00,0x00,0x00, 0x00,0x00,0x00,0x00,0x00,0x00,0x00,0x00,0x00,0x00,0x00,0x00,0x00,0x00,0x00, 0x00,0x00,0xc0,0x07,0x00,0x00,0x00,0x00,0x70,0x00,0x80,0x03,0x88,0x00,0x40, 0x04,0x08,0x00,0x40,0x04,0x70,0x00,0x40,0x04,0x80,0x00,0x40,0x04,0x88,0x00, 0x40,0x05,0x70,0x00,0x80,0x03,0x00,0x00,0x00,0x02,0x00,0x00,0x00,0x00,0x00, 0x00,0x00,0x00,0x80,0x00,0x00,0x00,0x80,0x00,0x00,0x00,0x80,0x00,0x00,0x00, 0x80,0x00,0x00,0x00,0x88,0x00,0x00,0x00,0x88,0x00,0x00,0x00,0x70,0x00,0x00, 0x00,0x00,0x00,0x00,0x00,0x00,0x00,0x80,0x03,0x00,0x00,0x40,0x04,0x00,0x00, 0x40,0x04,0x00,0x00,0x40,0x04,0x00,0x00,0x40,0x04,0x00,0x00,0x40,0x05,0x00, 0x00,0x80,0x03,0x00,0x00,0x00,0x02,0xc1,0x01,0x00,0x00,0x22,0x02,0x00,0x00, 0x24,0x00,0x00,0x00,0x28,0x00,0x00,0x00,0x24,0x00,0x00,0x00,0x22,0x02,0x00, 0x00,0xc1,0x01,0xc0,0x07,0x00,0x00,0x00,0x00,0x00,0x00,0x80,0x03,0x00,0x00, 0x40,0x04,0x00,0x00,0x40,0x04,0x00,0x00,0x40,0x04,0x00,0x00,0x40,0x04,0x00, 0x00,0x40,0x05,0x00,0x00,0x80,0x03,0x00,0x00,0x00,0x02,0x88,0x00,0x00,0x00, 0x48,0x00,0x00,0x00,0x28,0x00,0x00,0x00,0x18,0x00,0x00,0x00,0x28,0x00,0x00, 0x00,0x48,0x00,0x00,0x00,0x88,0x00,0x00,0x00};