#define splash_width 192#define splash_height 64static char splash_bits[] = { 0x00,0x00,0x00,0x00,0x00,0x00,0xfe,0x03,0x0c,0x00,0x00,0x00,0x00,0x00,0x00, 0x00,0x00,0x00,0x00,0x00,0x00,0x00,0x00,0x00,0x00,0x00,0x00,0x00,0x00,0x00, 0xfe,0x0f,0x0c,0x00,0x00,0x00,0x00,0x00,0x60,0x00,0x00,0x07,0x00,0x00,0x00, 0x00,0x00,0x00,0x00,0x00,0x00,0x00,0x00,0x00,0x06,0x1c,0x00,0x00,0x00,0x00, 0x00,0x00,0x60,0x00,0xc0,0x1f,0x00,0x00,0x00,0x00,0x00,0x00,0x00,0x00,0x00, 0x00,0x00,0x00,0x06,0x38,0x00,0x00,0x00,0x00,0x00,0x00,0x70,0x00,0xe0,0x38, 0x00,0x00,0x00,0x00,0x00,0x00,0x00,0x00,0x00,0x00,0x00,0x00,0x06,0x30,0x00, 0x00,0x00,0x00,0x00,0x00,0x7e,0x00,0x60,0x30,0x00,0x00,0x00,0x00,0x00,0x00, 0x00,0x00,0x00,0x00,0x00,0x00,0x06,0x60,0x8c,0xff,0xf9,0x9f,0x81,0x01,0x7e, 0x00,0x70,0x70,0x00,0x00,0x00,0x00,0x00,0x00,0x00,0x00,0x00,0x00,0x00,0x00, 0x06,0x60,0x8c,0xff,0xf9,0x9f,0x81,0x01,0x60,0x00,0x30,0x60,0x00,0x00,0x00, 0x00,0x00,0x00,0x00,0x00,0x00,0x00,0x00,0x00,0x06,0x60,0x0c,0xc0,0x00,0x8c, 0x81,0x01,0x60,0x00,0x30,0x60,0x00,0x00,0x00,0x00,0x00,0x00,0x00,0x00,0x00, 0x00,0x00,0x00,0x06,0x60,0x0c,0x60,0x00,0x06,0xc3,0x00,0x60,0x00,0x30,0x60, 0x00,0x00,0x00,0x00,0x00,0x00,0x00,0x00,0x00,0x00,0x00,0x00,0x06,0x60,0x0c, 0x70,0x00,0x07,0xc3,0x00,0x60,0x00,0x30,0x60,0x00,0x00,0x00,0x00,0x00,0x00, 0x00,0x00,0x00,0x00,0x00,0x00,0x06,0x60,0x0c,0x38,0x80,0x03,0xc3,0x00,0x60, 0x00,0x30,0x60,0x00,0x00,0x00,0x00,0x00,0x00,0x00,0x00,0x00,0x00,0x00,0x00, 0x06,0x60,0x0c,0x1c,0xc0,0x01,0x66,0x00,0x60,0x00,0x30,0x60,0x00,0x00,0x00, 0x00,0x00,0x00,0x00,0x00,0x00,0x00,0x00,0x00,0x06,0x60,0x0c,0x0c,0xc0,0x00, 0x66,0x00,0x60,0x00,0x30,0x60,0x00,0x00,0x00,0x00,0x00,0x00,0x00,0x00,0x00, 0x00,0x00,0x00,0x06,0x30,0x0c,0x0e,0xe0,0x00,0x66,0x00,0x60,0x00,0x70,0x70, 0x00,0x00,0x00,0x00,0x00,0x00,0x00,0x00,0x00,0x00,0x00,0x00,0x06,0x38,0x0c, 0x07,0x70,0x00,0x3c,0x00,0x60,0x00,0x60,0x30,0x00,0x00,0x00,0x00,0x00,0x00, 0x00,0x00,0x00,0x00,0x00,0x00,0x06,0x1c,0x8c,0x03,0x38,0x00,0x3c,0x00,0x60, 0x00,0xe0,0x38,0x00,0x00,0x00,0x00,0x00,0x00,0x00,0x00,0x00,0x00,0x00,0x00, 0xfe,0x0f,0x8c,0xff,0xf9,0x1f,0x3c,0x00,0x60,0xc0,0xc0,0x1f,0x00,0x00,0x00, 0x00,0x00,0x00,0x00,0x00,0x00,0x00,0x00,0x00,0xfe,0x03,0x8c,0xff,0xf9,0x1f, 0x18,0x00,0x60,0xc0,0x00,0x07,0x00,0x00,0x00,0x00,0x00,0x00,0x00,0x00,0x00, 0x00,0x00,0x00,0x00,0x00,0x00,0x00,0x00,0x00,0x18,0x00,0x00,0x00,0x00,0x00, 0x00,0x00,0x00,0x00,0x00,0x00,0x00,0x00,0x00,0x00,0x00,0x00,0x00,0x00,0x00, 0x00,0x00,0x00,0x18,0x00,0x00,0x00,0x00,0x00,0x00,0x00,0x00,0x00,0x00,0x00, 0x00,0x00,0x00,0x00,0x00,0x00,0x00,0x00,0x00,0x00,0x00,0x00,0x0c,0x00,0x00, 0x00,0x00,0x00,0x00,0x00,0x00,0x00,0x00,0x00,0x00,0x00,0x00,0x00,0x00,0x00, 0x00,0x00,0x00,0x00,0x00,0x80,0x0f,0x00,0x00,0x00,0x00,0x00,0x00,0x00,0x00, 0x00,0x00,0x00,0x00,0x00,0x00,0x00,0x00,0x00,0x00,0x00,0x00,0x00,0x00,0x80, 0x03,0x00,0x00,0x00,0x00,0x00,0x00,0x00,0x00,0x00,0x00,0x00,0x00,0x00,0x00, 0x00,0x00,0x00,0x00,0x00,0x00,0x00,0x00,0x00,0x00,0x00,0x00,0x00,0x00,0x00, 0x00,0x00,0x00,0x00,0x00,0x00,0x00,0x00,0x00,0x00,0x00,0x00,0x00,0x00,0x00, 0x00,0x00,0x00,0x00,0x00,0x00,0x00,0x00,0x00,0x00,0x00,0x00,0x00,0x00,0x00, 0x08,0x1e,0x01,0x05,0x04,0x27,0x00,0x20,0x10,0x00,0x08,0x00,0x11,0x00,0x22, 0x22,0x06,0x40,0x00,0x00,0x0e,0x00,0x01,0x00,0x08,0x22,0x00,0x04,0x84,0x08, 0x00,0x20,0x10,0x00,0x04,0x00,0x11,0x00,0x14,0x22,0x02,0x40,0x00,0x00,0x11, 0x00,0x01,0x00,0x14,0x42,0x71,0xcd,0x84,0xa0,0x1a,0x29,0x33,0xa6,0x8c,0x29, 0x53,0x18,0x14,0x24,0xd5,0x70,0x4c,0x10,0x41,0x34,0x63,0x6a,0x14,0x42,0x49, 0x25,0x05,0xa7,0x25,0xa9,0x14,0x69,0x44,0x1a,0xb1,0x24,0x08,0x54,0x35,0x49, 0x52,0x10,0x4e,0x4c,0x91,0x96,0x22,0x42,0x49,0xc5,0x05,0xa8,0x24,0x29,0x17, 0x29,0x44,0x0a,0x91,0x3c,0x08,0x54,0x15,0x49,0x92,0x0a,0x90,0x32,0xf1,0x92, 0x3e,0x42,0x49,0x25,0x05,0xa8,0x24,0xa9,0x14,0x29,0x44,0x0a,0x91,0x04,0x14, 0x88,0x14,0x49,0x92,0x0a,0x90,0x42,0x11,0x92,0x41,0x22,0x49,0x25,0x85,0xa8, 0x24,0xad,0x14,0x29,0x44,0x0a,0x91,0x24,0x14,0x88,0x14,0x49,0x12,0x05,0x11, 0x49,0x91,0x92,0x41,0x1e,0x71,0xc9,0x06,0xa7,0x24,0x2a,0x2b,0x26,0x84,0x09, 0x92,0x18,0x22,0x88,0x14,0x71,0x0c,0x05,0x0e,0x31,0x62,0x92,0x00,0x00,0x48, 0x00,0x00,0x00,0x00,0x00,0x00,0x00,0x00,0x00,0x00,0x00,0x00,0x00,0x00,0x00, 0x00,0x00,0x80,0x00,0x00,0x00,0x00,0x00,0x30,0x00,0x00,0x00,0x00,0x00,0x00, 0x00,0x00,0x00,0x00,0x00,0x00,0x00,0x00,0x00,0x00,0x00,0x80,0x00,0x00,0x00, 0x00,0x00,0x00,0x00,0x00,0x00,0x00,0x00,0x00,0x00,0x00,0x00,0x00,0x00,0x00, 0x00,0x00,0x00,0x00,0x00,0x00,0x00,0x00,0x00,0x00,0x00,0x00,0x00,0x00,0x00, 0x00,0x00,0x00,0x00,0x00,0x00,0x00,0x00,0x00,0x00,0x00,0x00,0x00,0x00,0x00, 0x00,0x00,0x00,0x00,0x00,0x00,0x00,0x00,0x00,0x00,0x00,0x00,0x00,0x00,0x00, 0x00,0x00,0x00,0x00,0x00,0x00,0x00,0x00,0x00,0x00,0x00,0x00,0x00,0x00,0x00, 0x00,0x00,0x00,0x00,0x00,0x00,0x00,0x00,0x00,0x00,0x00,0x00,0x00,0x00,0x00, 0x00,0x00,0x00,0x00,0x00,0x00,0x00,0x00,0x00,0x00,0x00,0x00,0x00,0x00,0x00, 0x00,0x00,0x00,0x00,0x00,0x00,0x00,0x00,0x00,0x00,0x00,0x00,0x00,0x00,0x00, 0x00,0x00,0x00,0x00,0x00,0x00,0x00,0x00,0x00,0x00,0x00,0x00,0x00,0x00,0x00, 0x00,0x00,0x00,0x00,0x00,0x00,0x00,0x00,0x00,0x00,0x00,0x00,0x00,0x00,0x00, 0x00,0x00,0x00,0x00,0x00,0x00,0x00,0x00,0x00,0x00,0x00,0x00,0x00,0x00,0x00, 0x00,0x00,0x00,0x00,0x00,0x00,0x00,0x00,0x00,0x00,0x00,0x00,0x00,0x00,0x00, 0x00,0x00,0x00,0x00,0x00,0x00,0x00,0x00,0x00,0x00,0x00,0x00,0x00,0x00,0x00, 0x00,0x00,0x00,0x00,0x00,0x00,0x00,0x00,0x00,0x00,0x00,0x00,0x00,0x00,0x00, 0x00,0x00,0x00,0x00,0x00,0x00,0x00,0x00,0x00,0x00,0x00,0x00,0x00,0x00,0x00, 0x00,0x00,0x00,0x00,0x00,0x00,0x00,0x00,0x00,0x00,0x00,0x00,0x00,0x00,0x00, 0x00,0x00,0x00,0x00,0x00,0x00,0x00,0x00,0x00,0x00,0x00,0x00,0x00,0x00,0x00, 0x00,0x00,0x00,0x00,0x00,0x00,0x00,0x00,0x00,0x00,0x00,0x00,0x00,0x00,0x00, 0x00,0x00,0x00,0x00,0x00,0x00,0x00,0x00,0x00,0x00,0x00,0x00,0x00,0x00,0x00, 0x00,0x00,0x00,0x00,0x00,0x00,0x00,0x00,0x00,0x00,0x00,0x00,0x00,0x00,0x00, 0x00,0x00,0x00,0x00,0x00,0x00,0x00,0x00,0x00,0x00,0x00,0x00,0x00,0x00,0x00, 0x00,0x00,0x00,0x00,0x00,0x00,0x00,0x00,0x00,0x00,0x00,0x00,0x00,0x00,0x00, 0x00,0x00,0x00,0x00,0x00,0x00,0x00,0x00,0x00,0x00,0x00,0x00,0x00,0x00,0x00, 0x00,0x00,0x00,0x00,0x00,0x00,0x00,0x00,0x00,0x00,0x00,0x00,0x00,0x00,0x00, 0x00,0x00,0x00,0x00,0x00,0x00,0x00,0x00,0x00,0x00,0x00,0x00,0x00,0x00,0x00, 0x00,0x00,0x00,0x00,0x00,0x00,0x00,0x00,0x00,0x00,0x00,0x00,0x00,0x00,0x00, 0x00,0x00,0x00,0x00,0x00,0x00,0x00,0x00,0x00,0x00,0x00,0x00,0x00,0x00,0x00, 0x00,0x00,0x00,0x00,0x00,0x70,0x00,0x00,0x00,0x08,0x20,0x08,0x00,0x20,0x38, 0x1c,0x0e,0x20,0x00,0x08,0x01,0x01,0x00,0x41,0x20,0x00,0x00,0x00,0x00,0x88, 0x00,0x00,0x00,0x00,0x20,0x08,0x78,0x30,0x44,0x22,0x11,0x20,0x00,0x00,0x83, 0x01,0x00,0x41,0x00,0x00,0x00,0x00,0x00,0x04,0x31,0x1a,0x51,0x8b,0xa5,0x39, 0x84,0x28,0x44,0x22,0x11,0x20,0x51,0x0b,0x83,0x89,0x34,0x51,0x24,0x00,0x00, 0x00,0x00,0x04,0x48,0x26,0xd1,0x48,0x66,0x0a,0x32,0x21,0x44,0x22,0x11,0x20, 0xd1,0x08,0x45,0x89,0x4c,0x49,0x22,0x00,0x00,0x00,0x00,0x04,0x84,0x42,0x51, 0x28,0x24,0x0a,0x0a,0x21,0x44,0x22,0x11,0x20,0x51,0x08,0x45,0x89,0x44,0x45, 0x21,0x00,0x00,0x00,0x00,0x04,0x84,0x42,0x4a,0x28,0x24,0x0a,0x0a,0x21,0x78, 0x3c,0x11,0x20,0x51,0x08,0x29,0x89,0x44,0xc3,0x20,0x00,0x00,0x00,0x00,0x04, 0x85,0x42,0x4a,0x28,0x24,0x0a,0x32,0x21,0x40,0x20,0x11,0x22,0x51,0x08,0x29, 0x89,0x44,0x45,0x21,0x00,0x00,0x00,0x00,0x88,0x48,0x26,0x44,0x48,0x26,0x0a, 0x84,0x20,0x44,0x22,0x11,0x22,0x59,0x08,0x11,0xc9,0x44,0x49,0x22,0x00,0x00, 0x00,0x00,0x70,0x30,0x1a,0x44,0x88,0x25,0x32,0x78,0x20,0x38,0x1c,0x0e,0x1c, 0x56,0x08,0x11,0xb1,0x44,0x51,0x24,0x00,0x00,0x00,0x00,0x00,0x00,0x02,0x02, 0x00,0x04,0x00,0x00,0x00,0x00,0x00,0x00,0x00,0x00,0x00,0x00,0x00,0x00,0x00, 0x00,0x00,0x00,0x00,0x00,0x00,0x00,0x02,0x02,0x40,0x02,0x00,0x00,0x00,0x00, 0x00,0x00,0x00,0x00,0x00,0x00,0x00,0x00,0x00,0x00,0x00,0x00,0x00,0x00,0x00, 0x00,0x02,0x01,0x80,0x01,0x00,0x00,0x00,0x00,0x00,0x00,0x00,0x00,0x00,0x00, 0x00,0x00,0x00,0x00,0x00,0x00};