#define tool_width 107#define tool_height 171static char tool_bits[] = { 0xff,0xff,0xff,0xff,0xff,0xff,0xff,0xff,0xff,0xff,0xff,0xff,0xff,0x05,0x01, 0x00,0x00,0x00,0x01,0x00,0x00,0x00,0x00,0x00,0x00,0x00,0x00,0x03,0x01,0x00, 0x00,0x00,0x01,0x00,0x00,0x00,0x00,0x00,0x00,0x00,0x00,0x05,0x01,0x00,0x00, 0x00,0x01,0x00,0x00,0x00,0x00,0x00,0x00,0x00,0x00,0x07,0x01,0x00,0x00,0x00, 0x01,0x00,0x00,0x00,0x00,0x00,0x00,0x00,0x00,0x07,0x01,0x00,0x00,0x00,0x01, 0x00,0x00,0x00,0x00,0x00,0x00,0x00,0x00,0x07,0x01,0x00,0x00,0x00,0x01,0x00, 0x00,0x00,0x00,0x00,0x00,0x00,0x00,0x07,0x01,0x00,0x00,0x00,0x01,0x00,0x00, 0x00,0x00,0x00,0x00,0x00,0x00,0x07,0x01,0x00,0x00,0x00,0x01,0x00,0x18,0x30, 0xf0,0xe0,0x7f,0x00,0x00,0x07,0x41,0x00,0x00,0x00,0x01,0x00,0x38,0x30,0xfc, 0xe3,0x7f,0x00,0x00,0x07,0x41,0x00,0x00,0x04,0x01,0x00,0x78,0x30,0x0e,0x07, 0x06,0x00,0x00,0x07,0x41,0x25,0x9a,0x0e,0x01,0x00,0x78,0x30,0x06,0x06,0x06, 0x00,0x00,0x07,0x41,0x4b,0xa5,0x05,0x01,0x00,0xd8,0x30,0x03,0x0c,0x06,0x00, 0x00,0x07,0x41,0x49,0xbd,0x04,0x01,0x00,0x98,0x31,0x03,0x0c,0x06,0x00,0x00, 0x07,0x41,0x89,0x84,0x04,0x01,0x00,0x98,0x33,0x03,0x0c,0x06,0x00,0x00,0x07, 0x41,0x89,0xb8,0x08,0x01,0x00,0x18,0x33,0x03,0x0c,0x06,0x00,0x00,0x07,0x01, 0x00,0x00,0x00,0x01,0x00,0x18,0x36,0x03,0x0c,0x06,0x00,0x00,0x07,0x01,0x00, 0x00,0x00,0x01,0x00,0x18,0x3c,0x06,0x06,0x06,0x00,0x00,0x07,0x01,0x00,0x00, 0x00,0x01,0x00,0x18,0x3c,0x0e,0x07,0x06,0x00,0x00,0x07,0x01,0x00,0x00,0x00, 0x01,0x00,0x18,0x38,0xfc,0x03,0x06,0x00,0x00,0x07,0x01,0x00,0x00,0x00,0x01, 0x00,0x18,0x30,0xf0,0x00,0x06,0x00,0x00,0x07,0x01,0x00,0x00,0x00,0x01,0x00, 0x00,0x00,0x00,0x00,0x00,0x00,0x00,0x07,0x01,0x00,0x00,0x00,0x01,0x00,0x00, 0x00,0x00,0x00,0x00,0x00,0x00,0x07,0x01,0x00,0x00,0x00,0x01,0x00,0x00,0x00, 0x00,0x00,0x00,0x00,0x00,0x07,0xff,0xff,0xff,0xff,0xff,0xff,0xff,0xff,0xff, 0xff,0xff,0xff,0xff,0x07,0x01,0x00,0x00,0x00,0x01,0x00,0x00,0x01,0x00,0x00, 0x01,0x00,0x00,0x07,0x01,0x00,0x00,0x00,0x01,0x00,0x00,0x01,0x00,0x00,0x01, 0x00,0x00,0x07,0x01,0x00,0x00,0x00,0x01,0x00,0x00,0x01,0x00,0x00,0x01,0x00, 0x00,0x07,0xe1,0x01,0x20,0x00,0x01,0x00,0x00,0x01,0x00,0x00,0x01,0x00,0x00, 0x07,0x21,0x02,0x00,0x00,0x01,0x00,0x00,0x01,0x00,0x00,0x01,0x00,0x00,0x07, 0x21,0x32,0x2e,0x03,0x01,0x00,0x00,0x01,0x00,0x00,0x01,0x00,0x00,0x07,0xe1, 0x49,0xa1,0x04,0x01,0x00,0x00,0x01,0x00,0x00,0x01,0x00,0x00,0x07,0x21,0x72, 0xa6,0x00,0x01,0x1e,0x00,0x31,0x00,0x18,0x01,0x00,0x0c,0x07,0x21,0x4a,0xa8, 0x04,0x01,0x3f,0x00,0xf1,0x00,0x1c,0x01,0x00,0x0e,0x07,0xe1,0xb1,0x27,0x03, 0x01,0x33,0x00,0xc1,0x03,0x1e,0x01,0x00,0x0f,0x07,0x01,0x00,0x00,0x00,0x01, 0x33,0x00,0x01,0x0f,0x1b,0x01,0x80,0x0d,0x07,0x01,0x00,0x00,0x00,0x01,0x1e, 0x00,0x01,0x3c,0x18,0x01,0x00,0x0c,0x07,0x01,0x00,0x00,0x00,0x01,0x0c,0x03, 0x01,0x0f,0x18,0xf1,0x1f,0x0c,0x07,0x01,0x00,0x00,0x00,0x01,0x1f,0x03,0xc1, 0x03,0x18,0xf1,0x1f,0x0c,0x07,0x01,0x80,0x00,0x00,0x01,0xb3,0x01,0xf1,0x00, 0x18,0x01,0x00,0x0c,0x07,0xc1,0x99,0x19,0x07,0x81,0xe1,0x01,0x31,0x00,0x18, 0x01,0x00,0x0c,0x07,0x21,0xa5,0xa4,0x00,0x81,0xc1,0x00,0x01,0x00,0x18,0xf1, 0x1f,0x0c,0x07,0x21,0xb9,0x3c,0x03,0x01,0xe3,0x01,0xf1,0x3f,0x18,0xf1,0x1f, 0x0c,0x07,0x21,0xa5,0x04,0x04,0x01,0x3f,0x03,0xf1,0x3f,0x18,0x01,0x00,0x0c, 0x07,0xc1,0x59,0xb9,0x03,0x01,0x1c,0x06,0x01,0x00,0x18,0x01,0x00,0x0c,0x07, 0x21,0x01,0x00,0x00,0x01,0x00,0x00,0x01,0x00,0x00,0x01,0x00,0x00,0x07,0xc1, 0x00,0x00,0x00,0x01,0x00,0x00,0x01,0x00,0x00,0x01,0x00,0x00,0x07,0x01,0x00, 0x00,0x00,0x01,0x00,0x00,0x01,0x00,0x00,0x01,0x00,0x00,0x07,0xff,0xff,0xff, 0xff,0xff,0xff,0xff,0xff,0xff,0xff,0xff,0xff,0xff,0x07,0x01,0x00,0x00,0x00, 0x01,0x00,0x00,0x01,0x00,0x00,0x01,0x00,0x00,0x07,0x01,0x00,0x00,0x00,0x01, 0x00,0x00,0x01,0x00,0x00,0x01,0x00,0x00,0x07,0x01,0x00,0x00,0x00,0x01,0x00, 0x00,0x01,0x00,0x00,0x01,0x00,0x00,0x07,0x01,0x00,0x00,0x00,0x01,0x00,0x00, 0x01,0x00,0x00,0x01,0x00,0x00,0x07,0x01,0x00,0x00,0x00,0x01,0x00,0x00,0x01, 0x00,0x00,0x01,0x00,0x00,0x07,0x01,0x00,0x00,0x00,0x01,0x00,0x00,0x01,0x00, 0x00,0x01,0x00,0x00,0x07,0x01,0x00,0x00,0x00,0x01,0x00,0x00,0x01,0x00,0x00, 0x01,0x00,0x00,0x07,0x01,0x00,0x00,0x00,0x01,0x18,0x00,0x01,0x1c,0x00,0x01, 0x40,0x00,0x07,0x01,0x4e,0x00,0x00,0x01,0x7e,0x00,0x01,0x7f,0x00,0x01,0x60, 0x00,0x07,0x01,0x12,0x00,0x00,0x01,0x66,0x00,0x01,0x63,0x00,0x01,0x70,0x00, 0x07,0x01,0x52,0xc5,0x01,0x01,0xc3,0x00,0x01,0xc0,0x00,0x01,0x78,0x00,0x07, 0x01,0x4e,0x2b,0x00,0x01,0xc3,0x00,0x01,0xe0,0x00,0x01,0x6c,0x00,0x07,0x01, 0x42,0xc9,0x00,0x01,0xc0,0x00,0x01,0x78,0x00,0x01,0x66,0x00,0x07,0x01,0x42, 0x09,0x01,0x01,0x60,0x00,0x01,0x78,0x00,0x01,0x63,0x00,0x07,0x01,0x42,0xe9, 0x00,0x01,0x70,0x00,0x01,0xe0,0x00,0x01,0xff,0x01,0x07,0x01,0x00,0x00,0x00, 0x01,0x38,0x00,0x01,0xc0,0x00,0x01,0xff,0x01,0x07,0x01,0x00,0x00,0x00,0x01, 0x1c,0x00,0x01,0xc0,0x00,0x01,0x60,0x00,0x07,0x01,0x00,0x00,0x00,0x01,0x0e, 0x00,0x01,0x63,0x00,0x01,0x60,0x00,0x07,0x01,0x00,0x00,0x00,0x01,0xff,0x00, 0x01,0x7f,0x00,0x01,0x60,0x00,0x07,0x01,0x00,0x00,0x00,0x01,0xff,0x00,0x01, 0x1c,0x00,0x01,0x60,0x00,0x07,0x01,0x00,0x00,0x00,0x01,0x00,0x00,0x01,0x00, 0x00,0x01,0x00,0x00,0x07,0x01,0x00,0x00,0x00,0x01,0x00,0x00,0x01,0x00,0x00, 0x01,0x00,0x00,0x07,0x01,0x00,0x00,0x00,0x01,0x00,0x00,0x01,0x00,0x00,0x01, 0x00,0x00,0x07,0xff,0xff,0xff,0xff,0xff,0xff,0xff,0xff,0xff,0xff,0xff,0xff, 0xff,0x07,0x01,0x00,0x00,0x00,0x01,0x00,0x00,0x01,0x00,0x00,0x01,0x00,0x00, 0x07,0x01,0x00,0x00,0x00,0x01,0x00,0x00,0x01,0x00,0x00,0x01,0x00,0x00,0x07, 0x01,0x00,0x00,0x00,0x01,0x00,0x00,0x01,0x00,0x00,0x01,0x00,0x00,0x07,0x01, 0x78,0x05,0x00,0x01,0x00,0x00,0x01,0x00,0x00,0x01,0x00,0x00,0x07,0x01,0x08, 0x01,0x00,0x01,0x00,0x00,0x01,0x00,0x00,0x01,0x00,0x00,0x07,0x01,0x08,0x75, 0x00,0x01,0x00,0x00,0x01,0x00,0x00,0x01,0x00,0x00,0x07,0x01,0x78,0x95,0x00, 0x01,0x00,0x00,0x01,0x00,0x00,0x01,0x00,0x00,0x07,0x01,0x08,0x95,0x00,0x01, 0x00,0x00,0x01,0x00,0x00,0x01,0x00,0x00,0x07,0x01,0x08,0x95,0x00,0xc1,0xe1, 0x07,0x01,0x0a,0x02,0x01,0x7e,0x00,0x07,0x01,0x08,0x75,0x00,0x21,0x22,0x08, 0x01,0x0a,0x01,0x01,0x82,0x00,0x07,0x01,0x00,0x10,0x00,0x11,0x24,0x10,0x01, 0x8a,0x00,0x01,0x02,0x01,0x07,0x01,0x00,0x10,0x00,0x21,0x20,0x10,0x01,0x4a, 0x00,0x01,0x02,0x01,0x07,0x01,0x00,0x00,0x00,0xc1,0x21,0x08,0x01,0x2a,0x00, 0x01,0x02,0x01,0x07,0x01,0x0a,0x00,0x00,0x01,0xe2,0x07,0x01,0x5a,0x00,0x01, 0x02,0x01,0x07,0x01,0x09,0x00,0x00,0x01,0x24,0x08,0x01,0x8a,0x00,0x01,0x02, 0x01,0x07,0x01,0xcb,0x1c,0x07,0x11,0x24,0x10,0x21,0x0a,0x01,0x01,0x02,0x01, 0x07,0x01,0x29,0xa5,0x00,0x21,0x22,0x10,0x21,0x0a,0x02,0x01,0x82,0x00,0x07, 0x01,0x29,0x25,0x03,0xc1,0x21,0x10,0xc1,0x09,0x04,0x01,0x7e,0x00,0x07,0x01, 0x29,0x25,0x04,0x01,0x00,0x00,0x01,0x00,0x00,0x01,0x00,0x00,0x07,0x01,0xc9, 0x9c,0x03,0x01,0x00,0x00,0x01,0x00,0x00,0x01,0x00,0x00,0x07,0x01,0x00,0x04, 0x00,0x01,0x00,0x00,0x01,0x00,0x00,0x01,0x00,0x00,0x07,0x01,0x00,0x04,0x00, 0x01,0x00,0x00,0x01,0x00,0x00,0x01,0x00,0x00,0x07,0x01,0x00,0x00,0x00,0x01, 0x00,0x00,0x01,0x00,0x00,0x01,0x00,0x00,0x07,0xff,0xff,0xff,0xff,0xff,0xff, 0xff,0xff,0xff,0xff,0xff,0xff,0xff,0x07,0x01,0x00,0x00,0x00,0x01,0x00,0x00, 0x01,0x00,0x00,0x01,0x00,0x00,0x07,0x01,0x00,0x00,0x00,0x01,0x00,0x00,0x01, 0x00,0x00,0x01,0x00,0x00,0x07,0x01,0x00,0x00,0x00,0x01,0x00,0x00,0x01,0x00, 0x00,0x01,0x00,0x00,0x07,0x01,0x01,0x00,0x00,0x01,0x00,0x00,0x01,0x00,0x00, 0x01,0x00,0x00,0x07,0x01,0x01,0x00,0x02,0x01,0x00,0x00,0x01,0x00,0x00,0x01, 0x00,0x00,0x07,0x01,0x95,0x93,0x06,0xc1,0xff,0x07,0xc1,0xff,0x07,0x01,0xfe, 0x03,0x07,0x01,0xad,0x94,0x02,0x41,0x00,0x06,0x41,0x00,0x04,0x01,0x02,0x02, 0x07,0x01,0xa5,0x94,0x02,0x41,0x02,0x05,0x41,0x00,0x04,0xc1,0x03,0x02,0x07, 0x01,0xa5,0xd4,0x02,0x41,0x83,0x04,0x41,0x38,0x04,0x01,0x02,0x02,0x07,0x01, 0xa5,0xa3,0x04,0x41,0x42,0x04,0x41,0x44,0x04,0x01,0xf2,0x02,0x07,0x01,0x80, 0x00,0x00,0x41,0x22,0x04,0x41,0x40,0x04,0xc1,0x13,0x02,0x07,0x01,0x80,0x00, 0x00,0x41,0x97,0x7c,0x79,0x20,0x3c,0x01,0x72,0x02,0x07,0x01,0x00,0x00,0x00, 0x41,0x48,0x05,0x41,0x10,0x04,0x01,0x12,0x02,0x07,0x61,0x00,0x00,0x00,0x41, 0x44,0x05,0x41,0x00,0x04,0xc1,0x13,0x02,0x07,0x91,0x80,0x00,0x10,0x41,0x42, 0x05,0x41,0x10,0x04,0x01,0x12,0x02,0x07,0x09,0xa5,0x9d,0x34,0x41,0x81,0x04, 0x41,0x00,0x04,0x01,0x02,0x02,0x07,0x09,0xa5,0xa4,0x14,0xc1,0x00,0x04,0x41, 0x00,0x04,0xc1,0x03,0x02,0x07,0x09,0xa5,0xa4,0x14,0xc1,0xff,0x07,0xc1,0xff, 0x07,0x01,0x02,0x02,0x07,0x91,0xb4,0xa4,0x16,0x01,0x00,0x00,0x01,0x00,0x00, 0x01,0xfe,0x03,0x07,0x61,0x28,0x1d,0x25,0x01,0x00,0x00,0x01,0x00,0x00,0x01, 0x00,0x00,0x07,0x01,0x00,0x04,0x00,0x01,0x00,0x00,0x01,0x00,0x00,0x01,0x00, 0x00,0x07,0x01,0x00,0x04,0x00,0x01,0x00,0x00,0x01,0x00,0x00,0x01,0x00,0x00, 0x07,0x01,0x00,0x00,0x00,0x01,0x00,0x00,0x01,0x00,0x00,0x01,0x00,0x00,0x07, 0xff,0xff,0xff,0xff,0xff,0xff,0xff,0xff,0xff,0xff,0xff,0xff,0xff,0x07,0x01, 0x00,0x00,0x00,0x01,0x00,0x00,0x01,0x00,0x00,0x01,0x00,0x00,0x07,0x01,0x00, 0x00,0x00,0x01,0x00,0x00,0x01,0x00,0x00,0x01,0x00,0x00,0x07,0x01,0x00,0x00, 0x00,0x01,0x00,0x00,0x01,0x00,0x00,0x01,0x00,0x00,0x07,0x01,0x00,0x00,0x00, 0x01,0x00,0x00,0x01,0x00,0x00,0x01,0x00,0x00,0x07,0x01,0x00,0x00,0x00,0x01, 0x00,0x00,0x01,0x00,0x00,0x01,0x00,0x00,0x07,0x01,0x00,0x00,0x00,0x01,0x00, 0x00,0x01,0x00,0x00,0x01,0x00,0x00,0x07,0x01,0x00,0x00,0x00,0x01,0x02,0x00, 0x01,0x07,0x00,0x01,0x00,0x00,0x07,0x39,0x01,0x00,0x02,0x01,0x03,0x00,0x81, 0x08,0x00,0xc1,0xff,0x01,0x07,0x45,0x00,0x00,0x02,0x01,0x02,0x00,0x81,0x08, 0x00,0x41,0x00,0x01,0x07,0x05,0xb9,0x62,0x72,0x01,0x02,0x00,0x81,0x08,0x00, 0x41,0x78,0x01,0x07,0x39,0xa5,0x95,0x0a,0x01,0x02,0x00,0x81,0x08,0x00,0x41, 0x08,0x01,0x07,0x41,0xa5,0xe4,0x32,0x01,0x02,0x00,0x81,0x08,0x00,0x41,0x08, 0x01,0x07,0x45,0xa5,0x94,0x42,0x01,0x07,0x00,0x01,0x07,0x00,0x41,0x08,0x3f, 0x07,0x39,0xb9,0x64,0x3b,0x01,0x00,0x00,0x01,0x00,0x00,0x41,0x08,0x01,0x07, 0x01,0x24,0x00,0x00,0x01,0x07,0x00,0x01,0x07,0x00,0x41,0x08,0x01,0x07,0x01, 0x18,0x00,0x00,0x01,0xfd,0x03,0x01,0xfd,0x03,0x41,0x0f,0x01,0x07,0x01,0x00, 0x00,0x00,0x01,0x07,0x00,0x01,0x07,0x00,0x41,0x00,0x01,0x07,0x01,0x00,0x00, 0x00,0x01,0x00,0x00,0x01,0x00,0x00,0xc1,0xff,0x01,0x07,0x01,0x00,0x00,0x00, 0x01,0x00,0x00,0x01,0x00,0x00,0x01,0x00,0x00,0x07,0x01,0x00,0x00,0x00,0x01, 0x00,0x00,0x01,0x00,0x00,0x01,0x00,0x00,0x07,0x01,0x00,0x00,0x00,0x01,0x00, 0x00,0x01,0x00,0x00,0x01,0x00,0x00,0x07,0x01,0x00,0x00,0x00,0x01,0x00,0x00, 0x01,0x00,0x00,0x01,0x00,0x00,0x07,0x01,0x00,0x00,0x00,0x01,0x00,0x00,0x01, 0x00,0x00,0x01,0x00,0x00,0x07,0xff,0xff,0xff,0xff,0xff,0xff,0xff,0xff,0xff, 0xff,0xff,0xff,0xff,0x07,0x01,0x00,0x00,0x00,0x01,0x00,0x00,0x01,0x00,0x00, 0x01,0x00,0x00,0x07,0x01,0x00,0x00,0x00,0x01,0x00,0x00,0x01,0x00,0x00,0x01, 0x00,0x00,0x07,0x01,0x00,0x00,0x00,0x01,0x00,0x00,0x01,0x00,0x00,0x01,0x00, 0x00,0x07,0x01,0x00,0x00,0x00,0x01,0x00,0x00,0x01,0x00,0x00,0x01,0x00,0x00, 0x07,0x01,0x00,0x00,0x00,0x01,0x00,0x00,0x01,0x00,0x00,0x01,0x00,0x00,0x07, 0x01,0x00,0x00,0x00,0x01,0x00,0x00,0x01,0x18,0x00,0x01,0x00,0x00,0x07,0x01, 0x00,0x00,0x00,0x01,0x01,0x00,0x81,0xe5,0x00,0x01,0x20,0x00,0x07,0x01,0x00, 0x00,0x00,0x01,0x03,0x00,0x41,0x26,0x01,0x01,0x20,0x00,0x07,0xc1,0x07,0x20, 0x00,0x01,0x07,0x00,0x41,0x26,0x05,0x01,0x10,0x08,0x07,0x01,0x01,0x20,0x00, 0x01,0x0f,0x00,0x81,0x24,0x0b,0x01,0x10,0x08,0x07,0x01,0x31,0x26,0x07,0x01, 0x1f,0x00,0x81,0x24,0x09,0x01,0x08,0x04,0x07,0x01,0x49,0xa9,0x00,0x01,0x3f, 0x00,0x61,0x01,0x09,0x01,0x0b,0x04,0x07,0x01,0x49,0x29,0x03,0x01,0x7f,0x00, 0x91,0x01,0x08,0x01,0x45,0x02,0x07,0x01,0x49,0x29,0x04,0x01,0xff,0x00,0x11, 0x01,0x04,0x01,0xa1,0x02,0x07,0x01,0x31,0xa6,0x03,0x01,0x1f,0x00,0x21,0x00, 0x04,0x01,0x21,0x01,0x07,0x01,0x00,0x00,0x00,0x01,0x1b,0x00,0x41,0x00,0x04, 0x01,0x11,0x00,0x07,0x01,0x00,0x00,0x00,0x01,0x31,0x00,0x41,0x00,0x02,0x01, 0x11,0x00,0x07,0x01,0x00,0x00,0x00,0x01,0x30,0x00,0x81,0x00,0x02,0x01,0x09, 0x00,0x07,0x01,0x00,0x00,0x00,0x01,0x60,0x00,0x01,0x01,0x01,0x01,0x09,0x00, 0x07,0x01,0x00,0x00,0x00,0x01,0x60,0x00,0x01,0x02,0x01,0x01,0x05,0x00,0x07, 0x01,0x00,0x00,0x00,0x01,0x00,0x00,0x01,0x02,0x01,0x01,0x05,0x00,0x07,0x01, 0x00,0x00,0x00,0x01,0x00,0x00,0x01,0x00,0x00,0x01,0x03,0x00,0x07,0x01,0x00, 0x00,0x00,0x01,0x00,0x00,0x01,0x00,0x00,0x01,0x00,0x00,0x07,0xff,0xff,0xff, 0xff,0xff,0xff,0xff,0xff,0xff,0xff,0xff,0xff,0xff,0x07,0xfa,0xff,0xff,0xff, 0xff,0xff,0xff,0xff,0xff,0xff,0xff,0xff,0xff,0x07,0xfd,0xff,0xff,0xff,0xff, 0xff,0xff,0xff,0xff,0xff,0xff,0xff,0xff,0x07};